<svg width="140" height="147" viewBox="0 0 140 147" fill="none" xmlns="http://www.w3.org/2000/svg">
<path d="M89 88H51C48.2432 88 46 85.8511 46 83.2095V78H94V83.2095C94 85.8511 91.7568 88 89 88ZM48 80V83.2095C48 84.748 49.3457 86 51 86H89C90.6543 86 92 84.748 92 83.2095V80H48Z" fill="black"/>
<path d="M94 80H46V57C46 54.2432 48.2432 52 51 52H89C91.7568 52 94 54.2432 94 57V80ZM48 78H92V57C92 55.3457 90.6543 54 89 54H51C49.3457 54 48 55.3457 48 57V78Z" fill="black"/>
<path d="M79.4473 96H60.5527L64.3311 86H75.6689L79.4473 96ZM63.4473 94H76.5527L74.2861 88H65.7139L63.4473 94Z" fill="black"/>
<path d="M81 96H59C58.4473 96 58 95.5522 58 95C58 94.4478 58.4473 94 59 94H81C81.5527 94 82 94.4478 82 95C82 95.5522 81.5527 96 81 96Z" fill="black"/>
<path d="M72 84H68C67.4473 84 67 83.5522 67 83C67 82.4478 67.4473 82 68 82H72C72.5527 82 73 82.4478 73 83C73 83.5522 72.5527 84 72 84Z" fill="black"/>
<path d="M78.6702 57.7856C78.3675 57.3418 77.9086 57.0871 77.4116 57.0871H63.4925C63.1585 57.0871 62.8463 57.2106 62.5827 57.4212L62.0979 55.4378C62.0344 55.1789 61.8259 55 61.5877 55H60.5292C60.2371 55 60 55.2672 60 55.5965C60 55.9258 60.2371 56.193 60.5292 56.193H61.1845L64.5261 70.6424C64.7023 71.4399 65.3374 72 66.0667 72H75.1364C75.4286 72 75.6657 71.7328 75.6657 71.4035C75.6657 71.0742 75.4286 70.807 75.1364 70.807H66.0667C65.8233 70.807 65.6116 70.6203 65.5528 70.3543L65.122 68.4026C65.1866 68.4115 65.2517 68.4211 65.3179 68.4211H75.5852C76.3039 68.4211 76.9353 67.8741 77.1195 67.0909L78.9459 59.3365C79.0735 58.7949 78.9729 58.2294 78.6702 57.7856ZM77.9234 59.0293L76.097 66.7837C76.0351 67.0449 75.825 67.2275 75.5852 67.2275H65.3179C65.0781 67.2275 64.8675 67.0449 64.8061 66.7837L62.9812 59.0293C62.9384 58.8492 62.9722 58.6607 63.0733 58.5127C63.1744 58.3648 63.3268 58.2801 63.4925 58.2801H77.4116C77.5773 58.2801 77.7303 58.3648 77.8308 58.5133C77.9319 58.6613 77.9658 58.8486 77.9234 59.0293Z" fill="black"/>
<path d="M67.25 73C66.5608 73 66 73.5608 66 74.25C66 74.9392 66.5608 75.5 67.25 75.5C67.9392 75.5 68.5 74.9392 68.5 74.25C68.5 73.5608 67.9392 73 67.25 73ZM67.25 74.6667C67.0204 74.6667 66.8333 74.4796 66.8333 74.25C66.8333 74.0204 67.0204 73.8333 67.25 73.8333C67.4796 73.8333 67.6667 74.0204 67.6667 74.25C67.6667 74.4796 67.4796 74.6667 67.25 74.6667Z" fill="black"/>
<path d="M73.25 73C72.5608 73 72 73.5608 72 74.25C72 74.9392 72.5608 75.5 73.25 75.5C73.9392 75.5 74.5 74.9392 74.5 74.25C74.5 73.5608 73.9392 73 73.25 73ZM73.25 74.6667C73.0204 74.6667 72.8333 74.4796 72.8333 74.25C72.8333 74.0204 73.0204 73.8333 73.25 73.8333C73.4796 73.8333 73.6667 74.0204 73.6667 74.25C73.6667 74.4796 73.4796 74.6667 73.25 74.6667Z" fill="black"/>
</svg>
