<svg width="110" height="165" viewBox="0 0 110 165" fill="none" xmlns="http://www.w3.org/2000/svg">
<path d="M41 113H69C71.3861 112.997 73.6735 112.048 75.3607 110.361C77.0479 108.674 77.9971 106.386 78 104V72C77.9971 69.6139 77.0479 67.3265 75.3607 65.6393C73.6735 63.9521 71.3861 63.0029 69 63H68V61H69C69.5304 61 70.0391 60.7893 70.4142 60.4142C70.7893 60.0391 71 59.5304 71 59V56.07C70.9992 55.256 70.6755 54.4756 70.0999 53.9001C69.5244 53.3245 68.744 53.0008 67.93 53H42.07C41.256 53.0008 40.4756 53.3245 39.9001 53.9001C39.3245 54.4756 39.0008 55.256 39 56.07V59C39 59.5304 39.2107 60.0391 39.5858 60.4142C39.9609 60.7893 40.4696 61 41 61H42V63H41C38.6139 63.0029 36.3265 63.9521 34.6393 65.6393C32.9521 67.3265 32.0029 69.6139 32 72V104C32.0029 106.386 32.9521 108.674 34.6393 110.361C36.3265 112.048 38.6139 112.997 41 113ZM41 59V56.07C41.0003 55.7863 41.1131 55.5143 41.3137 55.3137C41.5143 55.1131 41.7863 55.0003 42.07 55H67.93C68.2137 55.0003 68.4857 55.1131 68.6863 55.3137C68.8869 55.5143 68.9997 55.7863 69 56.07V59H41ZM41 65H43C43.2652 65 43.5196 64.8946 43.7071 64.7071C43.8946 64.5196 44 64.2652 44 64V61H66V63H59C58.7348 63 58.4804 63.1054 58.2929 63.2929C58.1054 63.4804 58 63.7348 58 64C58 64.2652 58.1054 64.5196 58.2929 64.7071C58.4804 64.8946 58.7348 65 59 65H69C70.5057 65.0032 71.9703 65.4912 73.1771 66.3917C74.3838 67.2923 75.2684 68.5575 75.7 70H34.3C34.7316 68.5575 35.6162 67.2923 36.8229 66.3917C38.0297 65.4912 39.4943 65.0032 41 65ZM34 72H76V103H34V72ZM75.92 105C75.6797 106.665 74.8482 108.187 73.5775 109.289C72.3068 110.391 70.6818 110.998 69 111H41C39.3182 110.998 37.6932 110.391 36.4225 109.289C35.1518 108.187 34.3203 106.665 34.08 105H75.92Z" fill="black"/>
<path d="M55 65C55.5523 65 56 64.5523 56 64C56 63.4477 55.5523 63 55 63C54.4477 63 54 63.4477 54 64C54 64.5523 54.4477 65 55 65Z" fill="black"/>
<path d="M70 78H68C67.9888 77.4663 67.7691 76.9583 67.3881 76.5845C67.007 76.2107 66.4948 76.0009 65.961 76H62.044C61.5021 76.0005 60.9825 76.216 60.5993 76.5993C60.216 76.9825 60.0005 77.5021 60 78.044V79.5H50V78C50 77.4696 49.7893 76.9609 49.4142 76.5858C49.0391 76.2107 48.5304 76 48 76H44C43.4696 76 42.9609 76.2107 42.5858 76.5858C42.2107 76.9609 42 77.4696 42 78H40C39.4696 78 38.9609 78.2107 38.5858 78.5858C38.2107 78.9609 38 79.4696 38 80V86C38 86.5304 38.2107 87.0391 38.5858 87.4142C38.9609 87.7893 39.4696 88 40 88H42C42 88.5304 42.2107 89.0391 42.5858 89.4142C42.9609 89.7893 43.4696 90 44 90H48C48.5304 90 49.0391 89.7893 49.4142 89.4142C49.7893 89.0391 50 88.5304 50 88V86.5H60V87.956C60.0005 88.4979 60.216 89.0175 60.5993 89.4007C60.9825 89.784 61.5021 89.9995 62.044 90H65.956C66.4906 90.0004 67.0041 89.7912 67.3863 89.4173C67.7684 89.0433 67.9887 88.5345 68 88H70C70.5304 88 71.0391 87.7893 71.4142 87.4142C71.7893 87.0391 72 86.5304 72 86V80C72 79.4696 71.7893 78.9609 71.4142 78.5858C71.0391 78.2107 70.5304 78 70 78ZM42 86H40V80H42V86ZM48 88H44V78H48V88ZM60 84.5H50V81.5H60V84.5ZM66 87.956C66 87.9677 65.9954 87.9789 65.9871 87.9871C65.9789 87.9954 65.9677 88 65.956 88L62 87.956L62.044 78L66 78.044V87.956ZM70 86H68V80H70V86Z" fill="black"/>
<path d="M70 93H40C39.7348 93 39.4804 93.1054 39.2929 93.2929C39.1054 93.4804 39 93.7348 39 94C39 94.2652 39.1054 94.5196 39.2929 94.7071C39.4804 94.8946 39.7348 95 40 95H70C70.2652 95 70.5196 94.8946 70.7071 94.7071C70.8946 94.5196 71 94.2652 71 94C71 93.7348 70.8946 93.4804 70.7071 93.2929C70.5196 93.1054 70.2652 93 70 93Z" fill="black"/>
<path d="M64 98H46C45.7348 98 45.4804 98.1054 45.2929 98.2929C45.1054 98.4804 45 98.7348 45 99C45 99.2652 45.1054 99.5196 45.2929 99.7071C45.4804 99.8946 45.7348 100 46 100H64C64.2652 100 64.5196 99.8946 64.7071 99.7071C64.8946 99.5196 65 99.2652 65 99C65 98.7348 64.8946 98.4804 64.7071 98.2929C64.5196 98.1054 64.2652 98 64 98Z" fill="black"/>
<circle cx="54.5" cy="82.5" r="43.5" stroke="black" stroke-width="4"/>
<line x1="74.7799" y1="41.9122" x2="33.7799" y2="121.912" stroke="black" stroke-width="4"/>
</svg>
